<svg xmlns="http://www.w3.org/2000/svg" xmlns:xlink="http://www.w3.org/1999/xlink" width="500" zoomAndPan="magnify" viewBox="0 0 375 374.999991" height="500" preserveAspectRatio="xMidYMid meet" version="1.0"><defs><g/></defs><g fill="#004aad" fill-opacity="1"><g transform="translate(43.476563, 207.749986)"><g><path d="M 20.421875 -8.765625 C 20.421875 -9.796875 19.90625 -10.609375 18.875 -11.203125 C 17.851562 -11.796875 16.210938 -12.328125 13.953125 -12.796875 C 6.410156 -14.378906 2.640625 -17.582031 2.640625 -22.40625 C 2.640625 -25.21875 3.804688 -27.566406 6.140625 -29.453125 C 8.472656 -31.335938 11.523438 -32.28125 15.296875 -32.28125 C 19.316406 -32.28125 22.53125 -31.332031 24.9375 -29.4375 C 27.351562 -27.550781 28.5625 -25.09375 28.5625 -22.0625 L 20.09375 -22.0625 C 20.09375 -23.269531 19.703125 -24.269531 18.921875 -25.0625 C 18.140625 -25.851562 16.921875 -26.25 15.265625 -26.25 C 13.835938 -26.25 12.734375 -25.925781 11.953125 -25.28125 C 11.171875 -24.632812 10.78125 -23.816406 10.78125 -22.828125 C 10.78125 -21.890625 11.222656 -21.128906 12.109375 -20.546875 C 13.003906 -19.972656 14.503906 -19.472656 16.609375 -19.046875 C 18.722656 -18.628906 20.5 -18.160156 21.9375 -17.640625 C 26.414062 -15.992188 28.65625 -13.148438 28.65625 -9.109375 C 28.65625 -6.222656 27.414062 -3.882812 24.9375 -2.09375 C 22.457031 -0.300781 19.253906 0.59375 15.328125 0.59375 C 12.671875 0.59375 10.3125 0.117188 8.25 -0.828125 C 6.1875 -1.773438 4.566406 -3.070312 3.390625 -4.71875 C 2.222656 -6.375 1.640625 -8.160156 1.640625 -10.078125 L 9.671875 -10.078125 C 9.742188 -8.578125 10.296875 -7.425781 11.328125 -6.625 C 12.367188 -5.820312 13.757812 -5.421875 15.5 -5.421875 C 17.125 -5.421875 18.347656 -5.726562 19.171875 -6.34375 C 20.003906 -6.957031 20.421875 -7.765625 20.421875 -8.765625 Z M 20.421875 -8.765625 "/></g></g><g transform="translate(74.326171, 207.749986)"><g><path d="M 21.625 0 C 21.226562 -0.757812 20.941406 -1.707031 20.765625 -2.84375 C 18.722656 -0.550781 16.0625 0.59375 12.78125 0.59375 C 9.664062 0.59375 7.085938 -0.304688 5.046875 -2.109375 C 3.015625 -3.910156 2 -6.175781 2 -8.90625 C 2 -12.269531 3.242188 -14.847656 5.734375 -16.640625 C 8.222656 -18.441406 11.820312 -19.347656 16.53125 -19.359375 L 20.421875 -19.359375 L 20.421875 -21.1875 C 20.421875 -22.644531 20.046875 -23.8125 19.296875 -24.6875 C 18.546875 -25.570312 17.359375 -26.015625 15.734375 -26.015625 C 14.304688 -26.015625 13.1875 -25.671875 12.375 -24.984375 C 11.5625 -24.304688 11.15625 -23.367188 11.15625 -22.171875 L 2.703125 -22.171875 C 2.703125 -24.015625 3.265625 -25.71875 4.390625 -27.28125 C 5.523438 -28.84375 7.128906 -30.066406 9.203125 -30.953125 C 11.273438 -31.835938 13.597656 -32.28125 16.171875 -32.28125 C 20.078125 -32.28125 23.175781 -31.296875 25.46875 -29.328125 C 27.769531 -27.367188 28.921875 -24.613281 28.921875 -21.0625 L 28.921875 -7.328125 C 28.941406 -4.316406 29.359375 -2.039062 30.171875 -0.5 L 30.171875 0 Z M 14.625 -5.890625 C 15.875 -5.890625 17.023438 -6.164062 18.078125 -6.71875 C 19.128906 -7.28125 19.910156 -8.03125 20.421875 -8.96875 L 20.421875 -14.421875 L 17.25 -14.421875 C 13.019531 -14.421875 10.765625 -12.953125 10.484375 -10.015625 L 10.453125 -9.515625 C 10.453125 -8.460938 10.820312 -7.59375 11.5625 -6.90625 C 12.3125 -6.226562 13.332031 -5.890625 14.625 -5.890625 Z M 14.625 -5.890625 "/></g></g><g transform="translate(106.494137, 207.749986)"><g><path d="M 15.125 -10.34375 L 21 -31.703125 L 29.859375 -31.703125 L 19.15625 0 L 11.078125 0 L 0.375 -31.703125 L 9.234375 -31.703125 Z M 15.125 -10.34375 "/></g></g><g transform="translate(136.816401, 207.749986)"><g><path d="M 15.125 -10.34375 L 21 -31.703125 L 29.859375 -31.703125 L 19.15625 0 L 11.078125 0 L 0.375 -31.703125 L 9.234375 -31.703125 Z M 15.125 -10.34375 "/></g></g><g transform="translate(167.138664, 207.749986)"><g><path d="M 15.09375 -11.984375 L 20.953125 -31.703125 L 30.03125 -31.703125 L 17.28125 4.921875 L 16.578125 6.59375 C 14.679688 10.726562 11.554688 12.796875 7.203125 12.796875 C 5.972656 12.796875 4.722656 12.613281 3.453125 12.25 L 3.453125 5.828125 L 4.75 5.859375 C 6.351562 5.859375 7.546875 5.613281 8.328125 5.125 C 9.117188 4.632812 9.742188 3.828125 10.203125 2.703125 L 11.1875 0.09375 L 0.09375 -31.703125 L 9.203125 -31.703125 Z M 15.09375 -11.984375 "/></g></g><g transform="translate(197.25585, 207.749986)"><g><path d="M 20.421875 -8.765625 C 20.421875 -9.796875 19.90625 -10.609375 18.875 -11.203125 C 17.851562 -11.796875 16.210938 -12.328125 13.953125 -12.796875 C 6.410156 -14.378906 2.640625 -17.582031 2.640625 -22.40625 C 2.640625 -25.21875 3.804688 -27.566406 6.140625 -29.453125 C 8.472656 -31.335938 11.523438 -32.28125 15.296875 -32.28125 C 19.316406 -32.28125 22.53125 -31.332031 24.9375 -29.4375 C 27.351562 -27.550781 28.5625 -25.09375 28.5625 -22.0625 L 20.09375 -22.0625 C 20.09375 -23.269531 19.703125 -24.269531 18.921875 -25.0625 C 18.140625 -25.851562 16.921875 -26.25 15.265625 -26.25 C 13.835938 -26.25 12.734375 -25.925781 11.953125 -25.28125 C 11.171875 -24.632812 10.78125 -23.816406 10.78125 -22.828125 C 10.78125 -21.890625 11.222656 -21.128906 12.109375 -20.546875 C 13.003906 -19.972656 14.503906 -19.472656 16.609375 -19.046875 C 18.722656 -18.628906 20.5 -18.160156 21.9375 -17.640625 C 26.414062 -15.992188 28.65625 -13.148438 28.65625 -9.109375 C 28.65625 -6.222656 27.414062 -3.882812 24.9375 -2.09375 C 22.457031 -0.300781 19.253906 0.59375 15.328125 0.59375 C 12.671875 0.59375 10.3125 0.117188 8.25 -0.828125 C 6.1875 -1.773438 4.566406 -3.070312 3.390625 -4.71875 C 2.222656 -6.375 1.640625 -8.160156 1.640625 -10.078125 L 9.671875 -10.078125 C 9.742188 -8.578125 10.296875 -7.425781 11.328125 -6.625 C 12.367188 -5.820312 13.757812 -5.421875 15.5 -5.421875 C 17.125 -5.421875 18.347656 -5.726562 19.171875 -6.34375 C 20.003906 -6.957031 20.421875 -7.765625 20.421875 -8.765625 Z M 20.421875 -8.765625 "/></g></g><g transform="translate(228.105458, 207.749986)"><g><path d="M 11.515625 -28.25 C 13.765625 -30.9375 16.585938 -32.28125 19.984375 -32.28125 C 26.859375 -32.28125 30.34375 -28.285156 30.4375 -20.296875 L 30.4375 0 L 21.96875 0 L 21.96875 -20.0625 C 21.96875 -21.882812 21.578125 -23.226562 20.796875 -24.09375 C 20.015625 -24.96875 18.71875 -25.40625 16.90625 -25.40625 C 14.425781 -25.40625 12.628906 -24.445312 11.515625 -22.53125 L 11.515625 0 L 3.046875 0 L 3.046875 -45 L 11.515625 -45 Z M 11.515625 -28.25 "/></g></g><g transform="translate(261.679674, 207.749986)"><g><path d="M 17.84375 0.59375 C 13.195312 0.59375 9.410156 -0.832031 6.484375 -3.6875 C 3.566406 -6.539062 2.109375 -10.34375 2.109375 -15.09375 L 2.109375 -15.90625 C 2.109375 -19.09375 2.722656 -21.941406 3.953125 -24.453125 C 5.179688 -26.960938 6.921875 -28.894531 9.171875 -30.25 C 11.429688 -31.601562 14.007812 -32.28125 16.90625 -32.28125 C 21.238281 -32.28125 24.648438 -30.910156 27.140625 -28.171875 C 29.628906 -25.441406 30.875 -21.566406 30.875 -16.546875 L 30.875 -13.09375 L 10.6875 -13.09375 C 10.96875 -11.019531 11.796875 -9.359375 13.171875 -8.109375 C 14.546875 -6.859375 16.289062 -6.234375 18.40625 -6.234375 C 21.664062 -6.234375 24.210938 -7.414062 26.046875 -9.78125 L 30.203125 -5.125 C 28.929688 -3.332031 27.210938 -1.929688 25.046875 -0.921875 C 22.878906 0.0859375 20.476562 0.59375 17.84375 0.59375 Z M 16.875 -25.4375 C 15.195312 -25.4375 13.832031 -24.867188 12.78125 -23.734375 C 11.738281 -22.597656 11.070312 -20.976562 10.78125 -18.875 L 22.5625 -18.875 L 22.5625 -19.546875 C 22.519531 -21.421875 22.007812 -22.867188 21.03125 -23.890625 C 20.0625 -24.921875 18.675781 -25.4375 16.875 -25.4375 Z M 16.875 -25.4375 "/></g></g><g transform="translate(294.111312, 207.749986)"><g><path d="M 12.1875 0 L 3.6875 0 L 3.6875 -45 L 12.1875 -45 Z M 12.1875 0 "/></g></g><g transform="translate(310.019514, 207.749986)"><g><path d="M 5.5625 0 L 5.5625 -25.484375 L 0.84375 -25.484375 L 0.84375 -31.703125 L 5.5625 -31.703125 L 5.5625 -34.390625 C 5.5625 -37.953125 6.582031 -40.710938 8.625 -42.671875 C 10.664062 -44.628906 13.523438 -45.609375 17.203125 -45.609375 C 18.367188 -45.609375 19.800781 -45.414062 21.5 -45.03125 L 21.421875 -38.46875 C 20.710938 -38.644531 19.851562 -38.734375 18.84375 -38.734375 C 15.65625 -38.734375 14.0625 -37.238281 14.0625 -34.25 L 14.0625 -31.703125 L 20.359375 -31.703125 L 20.359375 -25.484375 L 14.0625 -25.484375 L 14.0625 0 Z M 5.5625 0 "/></g></g></g><path stroke-linecap="butt" transform="matrix(0.75, 0, 0, 0.75, 37.500002, 113.999993)" fill="none" stroke-linejoin="miter" d="M -0.00000271667 25.000012 L 392.031273 25.000012 " stroke="#004aad" stroke-width="50" stroke-opacity="1" stroke-miterlimit="4"/><path stroke-linecap="butt" transform="matrix(0.75, 0, 0, 0.75, 18.750003, 41.808036)" fill="none" stroke-linejoin="miter" d="M 24.999997 60.292415 L 24.999997 42.64658 C 24.999997 37.964288 26.859372 33.479913 30.166664 30.167413 C 33.479165 26.860121 37.968748 25.000746 42.645832 25.000746 L 399.385439 25.000746 C 404.062522 25.000746 408.552106 26.860121 411.864606 30.167413 C 415.171898 33.479913 417.031273 37.964288 417.031273 42.64658 L 417.031273 60.292415 " stroke="#00bf63" stroke-width="50" stroke-opacity="1" stroke-miterlimit="4"/><path stroke-linecap="butt" transform="matrix(0.75, 0, 0, 0.75, 37.500002, 236.606908)" fill="none" stroke-linejoin="miter" d="M -0.00000271667 24.998083 L 392.031273 24.998083 " stroke="#004aad" stroke-width="50" stroke-opacity="1" stroke-miterlimit="4"/><path stroke-linecap="butt" transform="matrix(0.75, 0, 0, 0.75, 18.750003, 298.897452)" fill="none" stroke-linejoin="miter" d="M 24.999997 0.00131457 L 24.999997 17.647149 C 24.999997 22.329441 26.859372 26.813816 30.166664 30.126317 C 33.479165 33.433608 37.968748 35.292984 42.645832 35.292984 L 399.385439 35.292984 C 404.062522 35.292984 408.552106 33.433608 411.864606 30.126317 C 415.171898 26.813816 417.031273 22.329441 417.031273 17.647149 L 417.031273 0.00131457 " stroke="#00bf63" stroke-width="50" stroke-opacity="1" stroke-miterlimit="4"/></svg>